<svg width="28" height="17" viewBox="0 0 28 17" fill="none" xmlns="http://www.w3.org/2000/svg">
<path d="M26.7547 2.83297L14.7878 16.3711C14.5776 16.6088 14.2957 16.7419 14.0022 16.7419C13.7087 16.7419 13.4267 16.6088 13.2166 16.3711L1.24515 2.83297C1.14713 2.72221 1.06922 2.58979 1.01602 2.44351C0.962827 2.29723 0.93542 2.14007 0.93542 1.98129C0.93542 1.82252 0.962827 1.66536 1.01602 1.51908C1.06922 1.3728 1.14713 1.24037 1.24515 1.12961C1.44617 0.901741 1.71602 0.77417 1.99702 0.77417C2.27802 0.77417 2.54787 0.901741 2.74889 1.12961L14.0022 13.8604L25.2532 1.12961C25.4541 0.902523 25.7235 0.775446 26.004 0.775446C26.2844 0.775446 26.5538 0.902523 26.7547 1.12961C26.8527 1.24037 26.9307 1.3728 26.9838 1.51908C27.037 1.66536 27.0645 1.82252 27.0645 1.98129C27.0645 2.14007 27.037 2.29723 26.9838 2.44351C26.9307 2.58979 26.8527 2.72221 26.7547 2.83297Z" fill="currentColor"/>
</svg>
