<svg width="32" height="32" viewBox="0 0 32 32" fill="none" xmlns="http://www.w3.org/2000/svg">
<rect width="32" height="32" rx="8" fill="black"/>
<g clip-path="url(#clip0_2_25494)">
<path d="M2.18433 4.66662L6.31465 2.77625H6.72768V16.2202C6.72768 17.1126 6.76523 17.6683 6.84032 17.8875C6.92377 18.1067 7.09065 18.275 7.34097 18.3924C7.59129 18.5098 8.10028 18.5763 8.86794 18.592V19.0264H2.48471V18.592C3.28575 18.5763 3.80308 18.5137 4.03671 18.4041C4.27035 18.2867 4.43306 18.1341 4.52484 17.9462C4.61663 17.7505 4.66252 17.1752 4.66252 16.2202V7.62547C4.66252 6.46698 4.6208 5.72335 4.53736 5.39459C4.47895 5.14411 4.37048 4.96016 4.21194 4.84274C4.06174 4.72533 3.87818 4.66662 3.66123 4.66662C3.3525 4.66662 2.92278 4.78795 2.37207 5.03061L2.18433 4.66662Z" fill="white"/>
<path d="M11.243 3.10501H20.3422V3.55118L14.6849 19.3552H13.2831L18.3522 5.01886H13.6836C12.7408 5.01886 12.0691 5.12454 11.6685 5.33588C10.9676 5.69596 10.4044 6.25172 9.97887 7.00317L9.6159 6.87402L11.243 3.10501Z" fill="white"/>
<path d="M9.28979 23.0005C9.28979 21.5696 9.5231 20.3391 9.9897 19.3091C10.4563 18.2729 11.0762 17.5019 11.8494 16.9962C12.4494 16.5953 13.0693 16.3948 13.7092 16.3948C14.749 16.3948 15.6822 16.8851 16.5088 17.8658C17.542 19.0809 18.0586 20.7277 18.0586 22.8062C18.0586 24.2618 17.8319 25.4984 17.3787 26.5161C16.9254 27.5338 16.3455 28.2739 15.6389 28.7365C14.939 29.1929 14.2624 29.4211 13.6092 29.4211C12.316 29.4211 11.2395 28.7149 10.3796 27.3025C9.65308 26.1121 9.28979 24.6781 9.28979 23.0005ZM11.2495 23.2318C11.2495 24.9587 11.4795 26.3681 11.9394 27.4598C12.3194 28.3788 12.886 28.8383 13.6392 28.8383C13.9991 28.8383 14.3724 28.6902 14.759 28.3942C15.1456 28.092 15.4389 27.5893 15.6389 26.8862C15.9455 25.8253 16.0989 24.3296 16.0989 22.3991C16.0989 20.9682 15.9389 19.7747 15.6189 18.8187C15.379 18.1094 15.069 17.6068 14.689 17.3107C14.4158 17.1072 14.0858 17.0054 13.6992 17.0054C13.2459 17.0054 12.8426 17.1935 12.4894 17.5698C12.0094 18.0817 11.6828 18.8866 11.5095 19.9844C11.3362 21.0823 11.2495 22.1647 11.2495 23.2318Z" fill="white"/>
<path d="M27.9672 16.3948V16.7371C27.0873 16.8173 26.3674 16.9807 25.8075 17.2275C25.2542 17.468 24.7043 17.8381 24.1577 18.3377C23.6178 18.8372 23.1679 19.3954 22.8079 20.0122C22.4546 20.6228 22.158 21.3506 21.918 22.1956C22.8779 21.585 23.8411 21.2797 24.8076 21.2797C25.7342 21.2797 26.5374 21.6251 27.2173 22.3159C27.8972 23.0066 28.2372 23.8948 28.2372 24.9803C28.2372 26.0289 27.8939 26.9849 27.2073 27.8483C26.3808 28.8969 25.2876 29.4211 23.9278 29.4211C23.0012 29.4211 22.2147 29.1374 21.5681 28.57C20.3016 27.4659 19.6684 26.035 19.6684 24.2772C19.6684 23.1547 19.9117 22.0877 20.3983 21.0761C20.8849 20.0646 21.5781 19.1672 22.478 18.3839C23.3845 17.6006 24.2511 17.0733 25.0776 16.8019C25.9042 16.5305 26.674 16.3948 27.3873 16.3948H27.9672ZM21.7481 22.871C21.6281 23.7036 21.5681 24.3759 21.5681 24.8878C21.5681 25.4799 21.6847 26.1245 21.918 26.8214C22.158 27.5122 22.5113 28.0611 22.9779 28.4682C23.3178 28.7581 23.7311 28.903 24.2177 28.903C24.7976 28.903 25.3142 28.6502 25.7675 28.1444C26.2274 27.6386 26.4574 26.917 26.4574 25.9795C26.4574 24.9248 26.2308 24.012 25.7775 23.241C25.3242 22.4701 24.681 22.0846 23.8478 22.0846C23.5945 22.0846 23.3212 22.1339 23.0279 22.2326C22.7413 22.3313 22.3147 22.5441 21.7481 22.871Z" fill="white"/>
<g clip-path="url(#clip1_2_25494)">
<path d="M27.4092 3.59067L27.4099 3.59036C27.4054 3.59174 27.4092 3.59067 27.4092 3.59067Z" fill="white"/>
<path d="M24.7378 7.7807C24.7249 7.78964 24.7257 7.78943 24.7257 7.78943C24.7298 7.78644 24.7339 7.78345 24.7378 7.7807Z" fill="white"/>
<path d="M20.9688 8.196C21.0934 8.00144 21.4169 7.54755 21.7059 7.20399C22.3922 6.3889 23.3044 5.56742 24.2705 4.98318C25.3277 4.34379 27.1174 3.43882 28.3668 3.4669C28.3482 3.41443 28.3724 3.34813 28.4272 3.3258C28.5283 3.28429 28.6366 3.26781 28.7388 3.23019C28.7693 3.21776 28.7996 3.20468 28.8291 3.18987C28.8333 3.18668 28.8385 3.18715 28.8431 3.18526C28.846 3.17839 28.8489 3.17154 28.8539 3.16556C28.8532 3.1662 28.8525 3.16727 28.8518 3.16791C28.8725 3.14291 28.8895 3.11443 28.9079 3.08748C28.9335 3.0496 28.959 3.01173 28.9846 2.97386C29.0309 2.9056 29.0776 2.83735 29.1224 2.76801C29.1652 2.70015 29.2074 2.63121 29.2431 2.55942C29.2735 2.48887 29.2961 2.41503 29.3206 2.34228C29.383 2.14524 29.4395 1.94598 29.4776 1.74356C29.5003 1.60901 29.5114 1.47351 29.5186 1.33797C29.5189 1.33065 29.5192 1.32333 29.5198 1.3158L29.5198 1.31537C29.5199 1.31279 29.52 1.31021 29.5201 1.30763C29.5201 1.30849 29.52 1.30977 29.52 1.31063C29.5222 1.2648 29.5235 1.21896 29.5247 1.17291C29.5259 1.12019 29.5256 1.06767 29.5294 1.01497C29.5331 0.960762 29.5836 0.917291 29.6361 0.914528C29.6553 0.913621 29.6745 0.918106 29.6911 0.927079C29.7244 0.944594 29.7486 0.978596 29.7473 1.01819C29.7456 1.06725 29.7407 1.11606 29.7374 1.16533C29.7345 1.21266 29.732 1.25999 29.7291 1.30732C29.7234 1.39854 29.7162 1.48953 29.7049 1.58026C29.6815 1.76753 29.6374 1.9529 29.5819 2.1343C29.5694 2.17594 29.5561 2.21737 29.5429 2.25879C29.515 2.34593 29.4839 2.43241 29.4519 2.51844C29.4385 2.55427 29.4251 2.58966 29.4087 2.6246C29.3947 2.65483 29.3764 2.68329 29.3588 2.71198C29.3342 2.7518 29.3084 2.79117 29.2821 2.82969C29.2329 2.902 29.1799 2.97213 29.1273 3.04227C29.0987 3.08054 29.0699 3.1186 29.0415 3.1571C29.0165 3.19067 28.9918 3.22404 28.965 3.25609C28.9539 3.26912 28.9391 3.27737 28.9236 3.28176C28.8883 3.33956 28.6704 3.45021 28.6097 3.4798C28.6876 3.48501 28.7658 3.49045 28.8437 3.49868C28.8489 3.49872 28.8538 3.49941 28.8589 3.50032C28.8658 3.50167 28.8723 3.50409 28.8784 3.50737C28.9123 3.5251 28.9291 3.56616 28.9143 3.60456C28.9371 3.62499 28.9468 3.64918 28.95 3.67956C28.9855 3.70076 28.9931 3.74259 28.9911 3.78411C29.0028 3.79864 29.0133 3.81379 29.0225 3.8298C29.024 3.83046 29.0255 3.83069 29.027 3.83134C29.043 3.83967 29.0576 3.85142 29.0699 3.86573C29.0982 3.89784 29.1243 3.93165 29.1524 3.96397C29.1748 3.98935 29.197 4.01452 29.2196 4.03969C29.2869 4.11239 29.3559 4.18383 29.4203 4.2593C29.4857 4.33629 29.549 4.41477 29.6113 4.49432C29.6766 4.57798 29.7383 4.66464 29.7956 4.75383C29.857 4.84865 29.9102 4.94792 29.9486 5.05502C29.9755 5.13059 30.0004 5.2068 30.0189 5.28532C30.0364 5.36038 30.0518 5.43563 30.066 5.51174C30.0926 5.65598 30.1167 5.80063 30.1449 5.94467C30.1783 6.09779 30.2157 6.24427 30.2555 6.39509C30.2541 6.23385 30.2497 6.16493 30.2796 5.95016C30.2936 5.84933 30.3101 5.74874 30.3293 5.64882C30.3477 5.55384 30.3664 5.45887 30.3846 5.36411C30.3978 5.28846 30.4088 5.21279 30.4158 5.13644C30.4177 5.08716 30.4177 5.03852 30.4155 4.98942C30.4105 4.94267 30.4032 4.89718 30.394 4.85146C30.3851 4.81824 30.3751 4.78565 30.364 4.75326C30.3366 4.68349 30.3051 4.61649 30.2716 4.54968C30.2085 4.43009 30.1427 4.3122 30.067 4.20003C30.0386 4.1606 30.0088 4.12202 29.9764 4.08557C29.9348 4.04043 29.8912 3.9985 29.8447 3.95805C29.7901 3.91409 29.7335 3.87419 29.6744 3.83708C29.6185 3.80429 29.5614 3.77431 29.5022 3.74752C29.467 3.7315 29.4496 3.69475 29.4484 3.65707C29.4225 3.65361 29.4005 3.63942 29.3879 3.618C29.3211 3.61289 29.2423 3.61133 29.2039 3.56363C29.1406 3.57706 29.0851 3.51049 29.1295 3.44072C29.1293 3.44093 29.1291 3.44114 29.1288 3.44136C29.2058 3.33743 29.6569 2.55986 29.7629 2.26784C29.7967 2.17473 29.829 2.08095 29.8596 1.98716C29.8999 1.85686 29.9345 1.72543 29.9612 1.592C29.9719 1.52903 29.9816 1.46626 29.9895 1.40305C29.9974 1.33983 30.0019 1.27659 30.0055 1.21334C30.0104 1.10103 30.0112 0.988451 30.006 0.87626C30.0032 0.845025 29.9998 0.814431 29.9949 0.783607C29.9856 0.724762 30.0291 0.666611 30.088 0.655724C30.1127 0.651208 30.1362 0.655283 30.156 0.66579C30.1849 0.680898 30.206 0.709501 30.2125 0.744214C30.2319 0.84835 30.2336 0.953614 30.2326 1.05972C30.2316 1.16088 30.2264 1.26201 30.2175 1.36332C30.2086 1.46699 30.1914 1.57037 30.171 1.67307C30.1525 1.76697 30.1281 1.8606 30.1 1.95248C30.0915 1.97995 30.0832 2.00722 30.0745 2.03448C30.076 2.02976 30.0775 2.02504 30.079 2.02032C30.077 2.02633 30.0752 2.03255 30.073 2.03877C30.0493 2.11326 30.0239 2.18772 29.9963 2.2613C29.8675 2.60671 29.7867 2.74117 29.3594 3.37517C29.4535 3.39645 29.7983 3.4996 29.8317 3.58923C29.8709 3.61713 29.9097 3.6463 29.9472 3.67677C29.9853 3.70789 30.0229 3.73986 30.0591 3.77269C30.0958 3.80594 30.1296 3.84155 30.1627 3.87822C30.233 3.9559 30.3001 4.03915 30.3505 4.13151C30.3771 4.17975 30.3994 4.23075 30.4192 4.28215C30.4395 4.33464 30.4572 4.38881 30.4705 4.44382C30.4866 4.50982 30.497 4.57708 30.5053 4.64474C30.5401 4.73545 30.5662 4.82953 30.5748 4.92819C30.5793 4.97967 30.5809 5.03049 30.5806 5.08236C30.5802 5.13187 30.5746 5.18176 30.5685 5.23121C30.556 5.33141 30.537 5.43068 30.5181 5.52953C30.5016 5.61612 30.4851 5.70272 30.4692 5.78954C30.4695 5.7889 30.4695 5.78846 30.4695 5.7876C30.4695 5.78846 30.4693 5.78911 30.4692 5.78997C30.4689 5.79277 30.4681 5.79556 30.4678 5.79836C30.4683 5.79621 30.4686 5.79385 30.4692 5.7917C30.4578 5.85983 30.4453 5.9286 30.4374 5.99719C30.433 6.03439 30.4288 6.07137 30.4243 6.10857C30.4202 6.14513 30.4185 6.18214 30.4154 6.21892C30.413 6.27895 30.4111 6.33856 30.4104 6.39861C30.41 6.45844 30.4121 6.5183 30.414 6.57794C30.4161 6.63543 30.4181 6.69292 30.4171 6.75038C30.4166 6.78718 30.415 6.82376 30.4097 6.86052C30.4033 6.90373 30.3866 6.95051 30.3384 6.96041C30.3168 6.96474 30.2935 6.95721 30.2779 6.94265C30.2618 6.92744 30.2562 6.90716 30.2574 6.885C30.2575 6.88199 30.2589 6.87985 30.2595 6.87685C30.241 6.87496 30.2233 6.86705 30.2108 6.85165C30.1984 6.83583 30.1939 6.81534 30.1964 6.79556C30.1953 6.78673 30.1935 6.7781 30.1918 6.76948C30.176 6.70606 30.1569 6.64367 30.1388 6.58087C30.1236 6.52757 30.1076 6.4747 30.0919 6.42161C29.7602 5.29615 30.0061 5.14356 29.1912 4.35047C29.3673 5.21431 29.239 5.40949 28.8221 6.74658C28.3184 8.3257 27.7518 9.1765 26.6169 11.3129C26.5282 11.4796 26.4393 11.6465 26.35 11.8129C26.3132 11.8817 26.2672 11.9732 26.1776 11.9715C26.155 11.9711 26.1345 11.9675 26.1157 11.954C26.0944 11.9387 26.0775 11.9201 26.0667 11.8961C26.0492 11.8583 26.0421 11.8171 26.0358 11.7757C26.0219 11.6841 26.0223 11.59 26.0166 11.4977C25.987 11.5142 25.9586 11.5329 25.9309 11.5522C25.8142 11.639 25.7018 11.7308 25.5944 11.8286C25.5612 11.8593 25.4653 11.9474 25.4988 11.9169C25.4763 11.9374 25.4431 11.9681 25.4651 11.9476C25.4213 11.9879 25.3738 12.0314 25.3274 12.068C25.1656 12.1963 25.0969 12.1749 24.9041 12.1611C24.6734 12.1444 24.6058 12.1236 24.3236 11.9846C24.099 11.8739 23.6975 11.6818 23.4575 11.5944C23.3035 11.5384 23.1401 11.4918 22.9989 11.4087C22.8716 11.3335 22.6919 11.2 22.7939 11.0855C22.6833 11.0815 22.6424 11.065 22.5647 11.0146C22.5102 10.9833 22.4006 10.9772 22.3357 10.9745C22.1512 10.9668 22.0465 10.9461 21.9816 10.7445C21.9208 10.5567 21.9648 10.536 21.9279 10.4002C21.8834 10.2985 21.9342 10.2098 21.9984 10.1109C22.0063 10.0989 22.0147 10.0872 22.0228 10.075C21.8229 10.0947 21.8378 10.0736 21.7348 10.0348C21.7175 10.0301 21.6941 10.0333 21.6759 10.037C21.6414 10.0471 21.6138 10.0729 21.5864 10.0976C21.3715 10.2982 21.1577 10.5221 20.9847 10.3897C20.9153 10.3364 20.901 10.248 20.8858 10.1676C20.8596 10.0315 20.8221 9.87321 20.7816 9.745C20.7685 9.70958 20.7479 9.6573 20.7204 9.63187C20.7164 9.62904 20.7166 9.62926 20.7145 9.62838C20.6321 9.61129 20.5984 9.63703 20.5295 9.5712C20.466 9.51059 20.4724 9.44306 20.484 9.35534C20.5103 9.16249 20.512 9.09276 20.512 9.09276C20.5422 8.91889 20.8301 8.41303 20.9688 8.196ZM21.9157 7.3688C22.1254 7.21805 22.3287 7.11545 22.3085 7.12604C22.5162 7.01509 22.706 6.95584 22.9843 6.85843C23.1191 6.81141 23.5864 6.6468 23.72 6.59632C23.8217 6.55676 24.3594 6.32626 24.4429 6.28826C24.7475 6.14975 24.9659 6.01845 25.2187 5.83794C25.6411 5.53732 25.9791 5.26114 26.232 5.08344C27.0668 4.49632 27.5267 4.46875 28.2151 3.99205C27.8366 4.19447 27.3161 4.34721 27.0726 4.44169C27.0726 4.44169 26.4461 4.65419 25.7518 5.14311C25.6339 5.22773 25.3492 5.44929 25.139 5.60456C24.8861 5.79174 24.5907 5.98714 24.3138 6.13558C23.9931 6.30709 23.4745 6.496 23.5366 6.46921C23.5331 6.47047 23.5101 6.47953 23.5138 6.47805C23.5132 6.47826 23.5073 6.48057 23.5066 6.48078C22.5519 6.84879 22.7228 6.8318 22.2046 7.04138C22.1067 7.14835 22.0099 7.25749 21.9157 7.3688ZM24.0029 6.83991C24.1075 6.79715 24.2097 6.75005 24.31 6.69777C24.4795 6.60586 24.6217 6.52123 24.7964 6.39837C25.1854 6.11876 25.3306 5.9896 25.5685 5.78443C26.1149 5.31421 27.3093 4.42335 25.6227 5.69924C25.3669 5.89285 25.159 6.04642 24.9198 6.18722C24.6578 6.34139 24.402 6.44632 24.1731 6.5418C24.0886 6.577 24.0043 6.61327 23.9198 6.6489C23.8388 6.68327 23.7573 6.71569 23.6751 6.74704C23.5513 6.7948 23.426 6.83782 23.3009 6.88191C23.1722 6.92726 23.0435 6.97304 22.9147 7.01775C22.8186 7.05112 22.722 7.08299 22.6266 7.11874C22.6263 7.11895 22.6261 7.11873 22.6259 7.11894C22.6252 7.11915 22.6246 7.11936 22.6239 7.11957C22.6246 7.11936 22.6254 7.11937 22.6259 7.11894C22.5246 7.15808 22.425 7.2011 22.3284 7.25191C22.2627 7.28706 22.1975 7.32415 22.1334 7.36189C22.0697 7.39921 22.0085 7.44001 21.9478 7.48231C21.9483 7.48188 21.9487 7.48145 21.9494 7.48124C21.717 7.64815 21.5326 7.7649 21.0894 8.51262C22.2083 7.4958 22.9559 7.24434 23.3568 7.09119C23.4217 7.06594 23.5139 7.03081 23.5707 7.00871C23.5617 7.01186 23.6051 6.99546 23.6152 6.99167C23.6125 6.99251 23.6097 6.99356 23.6068 6.99461C23.6237 6.98809 23.6404 6.98179 23.657 6.97548C23.6542 6.97653 23.6513 6.97757 23.6489 6.97862C23.6627 6.97336 23.6765 6.96811 23.6903 6.96285C23.6901 6.96306 23.6901 6.96306 23.6899 6.96285C23.6905 6.96264 23.6908 6.96243 23.6914 6.96222C23.6923 6.9618 23.6929 6.96158 23.6938 6.96116C23.797 6.92139 23.9004 6.88184 24.0029 6.83991ZM20.738 9.32057C20.753 9.30757 20.768 9.295 20.783 9.282C20.8297 9.24217 20.8761 9.20233 20.9228 9.16249C21.1218 8.99227 21.3549 8.80987 21.491 8.71077C21.6922 8.56403 21.8333 8.47466 22.0023 8.37413C23.0415 7.75804 24.182 7.62909 25.5662 6.73387C26.5793 5.58438 26.8259 5.17953 27.4246 4.65554C25.3123 5.89646 25.5431 6.44394 23.5616 7.15263C23.4283 7.20031 23.158 7.29843 23.0379 7.34472C22.8453 7.419 22.727 7.4735 22.544 7.57003C22.3333 7.68418 22.1647 7.79095 22 7.9068C21.7629 8.07776 21.4163 8.33321 21.1936 8.52603C21.0637 8.63896 21.0469 8.65818 20.9523 8.74753C20.6937 9.2091 20.7855 9.04698 20.738 9.32057ZM23.2008 9.31806C23.0298 9.44247 22.942 9.48367 22.8589 9.51759C22.8256 9.56852 22.7897 9.61793 22.7518 9.66538C24.3038 8.95912 25.1671 7.68604 26.1886 6.96755C26.5482 6.7133 27.6114 6.10174 27.8753 5.72502C27.0948 6.38774 26.6529 6.42709 25.6552 7.33671C25.7294 7.27581 24.6962 8.22989 23.2008 9.31806ZM27.3113 6.84276C26.2852 8.2571 25.6851 9.42682 24.8298 10.2101C24.952 10.085 24.3368 10.7204 23.7341 10.9759C23.5927 11.0358 23.4531 11.0853 23.3095 11.1176C23.3012 11.1197 23.293 11.1209 23.2845 11.1228C23.3202 11.1244 23.3171 11.1311 23.4515 11.1183C23.5797 11.1017 23.7196 11.066 23.9994 10.9989C24.1196 10.9686 24.1618 10.9541 24.2343 10.9269C24.3624 10.8747 24.4268 10.8404 24.4899 10.8029C24.5567 10.7626 24.5803 10.7434 24.63 10.7062C24.6547 10.6877 24.7123 10.6363 24.7634 10.5829C24.957 10.3802 26.1571 8.79495 27.3113 6.84276ZM23.9048 10.8201C25.2432 10.0818 25.8455 8.7726 27.1326 6.94923C25.6363 8.71155 24.7948 10.0675 23.9048 10.8201ZM27.5237 6.47872C27.4888 6.52167 27.4534 6.56397 27.4179 6.60671C27.4337 6.60986 27.4284 6.60293 27.4404 6.62327C27.4686 6.57509 27.4959 6.5269 27.5237 6.47872ZM21.9887 9.84911C21.9889 9.84847 21.9885 9.84802 21.9888 9.84738C21.9922 9.83837 21.9987 9.83176 22.0069 9.82774C22.052 9.79069 22.144 9.69227 22.1835 9.64936C22.4008 9.41387 22.5106 9.25814 22.7119 9.01885C22.8634 8.83873 23.0418 8.63066 23.208 8.47091C23.3254 8.3583 23.4484 8.2494 23.5799 8.15349C24.1473 7.73921 24.5339 7.78525 25.1811 7.14266C24.2832 7.66055 23.2211 7.95679 22.7496 8.1373C22.5285 8.22294 22.3625 8.29552 22.1594 8.40285C21.9948 8.49094 21.8156 8.59784 21.6913 8.67831C21.5317 8.78194 21.266 8.97503 20.9669 9.22466C20.8839 9.29388 20.8008 9.36202 20.7841 9.3763C21.0479 9.43826 21.0797 9.81565 21.1376 10.167C21.1427 10.1638 21.1476 10.1609 21.1525 10.1575C21.3044 10.048 21.4888 9.85651 21.585 9.81926C21.7088 9.77107 21.7917 9.80087 21.888 9.85102C21.8891 9.85167 21.8955 9.85258 21.8967 9.85303C21.9311 9.85677 21.9519 9.85266 21.9887 9.84911ZM22.8671 10.8927C22.8877 10.8892 22.9079 10.8853 22.9284 10.8811C23.0027 10.8618 23.0765 10.8424 23.1517 10.8272C23.1913 10.8193 23.2314 10.8134 23.2714 10.8101C23.3179 10.8065 23.365 10.8093 23.41 10.8189C23.4292 10.823 23.4479 10.8296 23.4666 10.8358C23.47 10.8367 23.4734 10.8376 23.4768 10.838C23.4835 10.8387 23.4901 10.8394 23.497 10.8399C23.5045 10.8398 23.5123 10.8394 23.5199 10.8388C23.5288 10.8374 23.5374 10.8357 23.5461 10.8341C23.5571 10.8308 23.568 10.8274 23.5787 10.8234C23.5853 10.8205 23.5919 10.8175 23.5985 10.8145C23.6199 10.8025 23.6405 10.7895 23.6609 10.7755C23.7117 10.7372 23.7598 10.6957 23.8074 10.653C24.7146 9.81105 25.0946 9.05114 27.2445 6.52746C27.3081 6.45097 27.3701 6.3736 27.4333 6.29667C27.0451 6.59329 26.6837 6.77864 26.2623 7.07173C26.2503 7.08024 26.2385 7.08853 26.2265 7.09703C25.863 7.35577 24.9529 8.22764 25.0634 8.1393C25.0629 8.13972 25.0625 8.14015 25.0629 8.13972C24.2633 8.86061 23.6119 9.49067 22.6015 9.83236C22.523 9.90808 22.419 9.98702 22.3145 10.0223C22.2713 10.0843 22.1562 10.2426 22.1267 10.311C22.1314 10.3218 22.1351 10.3323 22.1391 10.3438C22.1429 10.355 22.1452 10.3673 22.1475 10.3792C22.1517 10.4012 22.1546 10.4227 22.1562 10.4451C22.1593 10.488 22.1581 10.5308 22.1608 10.5736C22.1645 10.6073 22.1688 10.6407 22.1756 10.6739C22.1788 10.6881 22.1827 10.7021 22.1869 10.7159C22.1898 10.7235 22.1929 10.7308 22.1963 10.738C22.1977 10.7404 22.1991 10.7427 22.2007 10.7449C22.203 10.7477 22.2054 10.7508 22.2076 10.7536C22.2087 10.7547 22.2099 10.756 22.2112 10.7568C22.2135 10.7588 22.216 10.7605 22.2183 10.7621C22.221 10.7636 22.2235 10.7649 22.2265 10.7662C22.2292 10.7673 22.2322 10.7682 22.2352 10.7695C22.2424 10.7713 22.2499 10.7729 22.2572 10.7743C22.2799 10.7766 22.3027 10.7768 22.3256 10.777C22.3212 10.777 22.3174 10.7769 22.3131 10.7769C22.3662 10.7776 22.4187 10.7802 22.4713 10.7852C22.5079 10.7887 22.5454 10.7945 22.5805 10.8053C22.6238 10.8186 22.6613 10.84 22.6979 10.8655C22.704 10.8688 22.7101 10.8721 22.7162 10.8754C22.7236 10.8783 22.7308 10.8809 22.7382 10.8838C22.7519 10.8873 22.7655 10.89 22.7792 10.8923C22.793 10.8933 22.8067 10.8943 22.8205 10.8948C22.8355 10.895 22.8513 10.894 22.8671 10.8927ZM23.031 11.1455C23.0355 11.1413 23.0406 11.1381 23.0455 11.1342C23.0455 11.1342 23.0453 11.134 23.0453 11.1336C23.0451 11.1153 23.0612 11.1004 23.0781 11.0992C23.1368 11.0864 23.0923 11.0944 23.1901 11.0755C23.2437 11.065 23.2965 11.0545 23.3495 11.0414C23.3495 11.0414 23.4203 11.0183 23.4207 11.0183C23.2661 10.981 23.2806 10.9994 22.9512 11.0695C22.9678 11.0838 23.0118 11.1275 23.031 11.1455ZM24.1913 11.6922C24.1955 11.6903 24.2618 11.6666 24.2668 11.6647C24.5879 11.5403 24.8908 11.2475 26.3555 9.76102C27.0797 9.02633 27.4946 8.67959 27.9702 7.94615C28.2888 7.44701 28.6255 6.79284 28.6466 6.73039C28.1606 7.35784 28.1057 7.34637 27.6618 7.82373C27.1311 8.39331 26.8662 8.93059 26.1249 9.68815C25.86 9.95896 25.6858 10.0999 25.497 10.244C25.4201 10.3227 25.3664 10.3786 25.2788 10.4605C25.1039 10.6236 24.914 10.7782 24.7068 10.9072C24.7066 10.9075 24.5407 11.0099 24.5407 11.0099C24.396 11.0937 24.2536 11.1574 24.0954 11.204C24.0923 11.2049 24.0893 11.2057 24.0862 11.2065C24.0678 11.2128 24.05 11.2211 24.0312 11.2269C23.9565 11.2508 23.8803 11.2699 23.8033 11.2852C23.8005 11.2858 23.7979 11.2866 23.7953 11.2875C23.6932 11.3154 23.5909 11.344 23.4871 11.3629C23.4782 11.3643 23.4691 11.3655 23.4603 11.3669C23.6151 11.4234 23.6919 11.4545 24.1913 11.6922ZM28.2941 7.66639C27.8199 8.51651 27.4701 8.87116 26.9571 9.35673C26.8549 9.45333 26.7515 9.54863 26.6503 9.64589C26.6368 9.65911 25.0841 11.1536 25.0259 11.2071C24.8186 11.3977 24.5437 11.649 24.2785 11.7337C24.2926 11.7405 24.307 11.747 24.3211 11.7538C24.4133 11.7992 24.5043 11.8474 24.5976 11.8904C24.6977 11.9328 24.7384 11.942 24.8043 11.9525C24.8157 11.9537 25.0785 11.9741 25.0805 11.9743C25.0941 11.9738 25.0962 11.9738 25.1108 11.9707C25.1252 11.9665 25.1278 11.9653 25.1434 11.9579C25.185 11.9333 25.2425 11.88 25.2784 11.8471C25.4084 11.7262 25.5118 11.6178 25.7026 11.4561C25.8026 11.3716 25.9544 11.2489 26.0783 11.2683C26.1342 11.2772 26.1783 11.312 26.2008 11.3637C26.2218 11.4123 26.2209 11.4672 26.2216 11.5197C26.2222 11.5617 26.224 11.6032 26.2261 11.645C27.4026 9.37338 27.7799 8.89197 28.2941 7.66639ZM29.0239 5.50681C28.6773 6.34644 27.9896 7.01472 27.8591 7.19545C27.8566 7.19823 27.8578 7.19716 27.8596 7.1946C27.8185 7.24352 27.5221 7.59455 27.5553 7.55438C26.651 8.62369 26.7264 8.7774 25.9591 9.71468C26.6795 8.98362 26.9995 8.40313 27.4323 7.88929C27.6158 7.66318 27.9926 7.29694 28.1584 7.10705C28.1584 7.10705 28.1581 7.10726 28.1579 7.10748C28.8625 6.26887 28.8213 6.31952 29.0239 5.50681ZM28.9677 4.14509C28.9467 4.12746 28.9268 4.1092 28.9067 4.09073C28.8939 4.12764 28.8819 4.16499 28.8685 4.20168C28.8747 4.20281 28.8809 4.20394 28.8868 4.207C28.9202 4.22474 28.9315 4.26681 28.9135 4.30088C27.7259 6.50956 26.792 8.24157 25.1707 10.3861C25.3169 10.2841 25.3903 10.2264 25.5853 9.9972C26.736 8.62593 26.338 8.76275 27.6919 7.15156C27.7051 7.13618 27.7803 7.04624 27.7676 7.06162C28.0962 6.6702 28.3751 6.35345 28.6194 5.97268C28.8817 5.59057 29.1054 4.94595 29.1054 4.94595C29.106 4.8026 29.0675 4.48886 28.9677 4.14509ZM28.2598 4.27227C27.2958 5.02075 27.2958 5.04637 25.9705 6.59195C24.2667 8.57887 23.9288 7.79927 22.9354 9.39751C22.9865 9.36762 23.0373 9.33792 23.0858 9.30391C23.2737 9.16976 23.4626 8.99708 23.706 8.81433C23.9367 8.64117 24.1087 8.53076 24.3334 8.34893C25.9039 7.07846 25.5616 7.13096 26.707 6.39183C27.1532 6.10412 27.5755 5.83709 27.9693 5.47702C28.3814 5.09667 28.7613 4.05006 28.8183 3.84952C28.622 3.98425 28.4825 4.09924 28.2598 4.27227ZM22.3273 6.91053C22.7548 6.71736 22.6394 6.72 23.7197 6.30252C23.6911 6.31518 23.966 6.21149 24.1998 6.08829C24.1998 6.08829 24.1973 6.08978 24.2004 6.08809C24.1976 6.08957 24.2092 6.08342 24.2022 6.08723C24.4153 5.97245 24.6088 5.84868 24.8036 5.712C24.8116 5.70647 24.8145 5.70457 24.8223 5.69883C25.2088 5.422 25.4576 5.19947 25.7546 4.98901C26.9126 4.1682 27.7511 4.18403 28.4659 3.64557C27.6941 3.64153 26.7589 3.97613 26.0933 4.28062C25.7627 4.43181 25.5225 4.5711 25.0626 4.82596C23.9292 5.45263 23.2179 5.99156 22.3273 6.91053Z" fill="white"/>
<path d="M26.7219 5.37991C26.7234 5.37853 26.7245 5.37679 26.7259 5.37541C26.7142 5.38932 26.7241 5.37713 26.7219 5.37991Z" fill="white"/>
<path d="M26.4321 3.89514C26.4364 3.89335 26.4407 3.89205 26.4451 3.89026C26.4232 3.89801 26.4321 3.89514 26.4321 3.89514Z" fill="white"/>
<path d="M29.947 5.05368C29.9476 5.055 29.9485 5.05665 29.9491 5.05797C29.9417 5.04011 29.947 5.05368 29.947 5.05368Z" fill="white"/>
<path d="M29.677 2.89196C29.676 2.89352 29.675 2.8957 29.674 2.89726C29.6823 2.8832 29.677 2.89196 29.677 2.89196Z" fill="white"/>
<path d="M30.0735 2.03763C30.0724 2.04145 30.0713 2.04526 30.0702 2.04908C30.0724 2.04185 30.072 2.04265 30.0735 2.03763Z" fill="white"/>
<path d="M28.9654 3.25509L28.965 3.25561C28.9658 3.25468 28.9654 3.25509 28.9654 3.25509Z" fill="white"/>
<path d="M29.5434 2.25836L29.5429 2.25963C29.5436 2.2573 29.5434 2.25836 29.5434 2.25836Z" fill="white"/>
<path d="M22.5903 6.99846C22.5908 6.99831 22.5911 6.99799 22.5918 6.99768C22.5852 7.00046 22.5903 6.99846 22.5903 6.99846Z" fill="white"/>
<path d="M23.9121 7.72622C23.9112 7.72665 23.9101 7.72684 23.909 7.72748C23.9198 7.72374 23.9232 7.72226 23.9121 7.72622Z" fill="white"/>
<path d="M22.2069 8.25737C22.2078 8.25709 22.2084 8.25649 22.2094 8.25621C22.2112 8.25503 22.2137 8.25386 22.2156 8.25269C22.2131 8.25446 22.21 8.25561 22.2069 8.25737Z" fill="white"/>
<path d="M23.8548 9.17032C23.8557 9.1697 23.8556 9.1698 23.8548 9.17032V9.17032Z" fill="white"/>
<path d="M27.3034 6.3943L27.3029 6.39459C27.3044 6.39355 27.3034 6.3943 27.3034 6.3943Z" fill="white"/>
<path d="M26.1882 6.96768C26.1901 6.96639 26.1917 6.96483 26.1934 6.96381C26.1781 6.97465 26.1882 6.96768 26.1882 6.96768Z" fill="white"/>
<path d="M28.0435 8.09167C28.0418 8.09454 28.0402 8.09697 28.0386 8.09983C28.0458 8.08817 28.0435 8.09167 28.0435 8.09167Z" fill="white"/>
<path d="M28.1462 6.85999C28.1458 6.86038 28.1455 6.86098 28.1449 6.86157C28.1537 6.85087 28.1531 6.85146 28.1462 6.85999Z" fill="white"/>
<path d="M27.4272 7.89668L27.4276 7.89605C27.4276 7.89605 27.4273 7.89636 27.4272 7.89668Z" fill="white"/>
<path d="M27.4331 7.88815C27.4352 7.88561 27.4373 7.88307 27.4393 7.88052C27.4369 7.88392 27.4358 7.88504 27.4331 7.88815Z" fill="white"/>
<path d="M24.3155 6.13465C24.3153 6.13484 24.315 6.13493 24.3148 6.13512C24.3162 6.13438 24.3155 6.13465 24.3155 6.13465Z" fill="white"/>
<path d="M25.756 4.98826L25.7568 4.9877L25.756 4.98826Z" fill="white"/>
<path d="M30.1349 4.54297C29.8443 4.01799 29.4733 3.8242 29.3342 3.7388C29.3063 3.72069 29.3061 3.72134 29.3061 3.72134C29.2311 3.68193 29.1654 3.79629 29.2323 3.83885C29.6807 4.12459 30.0108 4.36945 30.1948 4.87929C30.1927 4.87303 30.196 4.88274 30.195 4.87994C30.7281 6.42368 30.8146 6.38937 30.1952 4.88059C30.2318 4.98617 30.2769 5.12604 30.2876 5.23269C30.2904 5.26715 30.2909 5.38554 30.2913 5.38921C30.2961 5.41443 30.336 5.41866 30.347 5.38798C30.3564 5.35556 30.3546 5.24297 30.3509 5.20484C30.338 5.07471 30.2424 4.73764 30.1349 4.54297Z" fill="white"/>
<path d="M30.354 5.3302L30.3541 5.33075C30.3539 5.32901 30.354 5.3302 30.354 5.3302Z" fill="white"/>
</g>
</g>
<defs>
<clipPath id="clip0_2_25494">
<rect width="30" height="30" fill="white" transform="translate(1 1)"/>
</clipPath>
<clipPath id="clip1_2_25494">
<rect width="26.7669" height="26.7669" fill="white" transform="matrix(-0.688355 -0.725374 -0.725374 0.688355 52.8411 6.41608)"/>
</clipPath>
</defs>
</svg>
